{
  "source": "C:\\Users\\Peter\\Desktop\\stuff\\MIUN\\quantitative_research\\video_compression\\videos\\BVI-HD\\BVI-HD_CDVL_videos\\ORIG\\TreeTrunk_1920x1080_50fps.mp4",
  "output": "C:\\Users\\Peter\\Desktop\\stuff\\MIUN\\quantitative_research\\video_compression\\compressed_videos\\BVI-HD\\h264\\4\\TreeTrunk_1920x1080_50fps_h264.mp4",
  "codec": "h264",
  "ok": "Input #0, mov,mp4,m4a,3gp,3g2,mj2, from 'C:\\Users\\Peter\\Desktop\\stuff\\MIUN\\quantitative_research\\video_compression\\videos\\BVI-HD\\BVI-HD_CDVL_videos\\ORIG\\TreeTrunk_1920x1080_50fps.mp4':\n  Metadata:\n    major_brand     : isom\n    minor_version   : 512\n    compatible_brands: isomiso2avc1mp41\n    encoder         : Lavf54.28.101\n  Duration: 00:00:05.00, start: 0.000000, bitrate: 622415 kb/s\n  Stream #0:0[0x1](und): Video: h264 (High 4:4:4 Predictive) (avc1 / 0x31637661), yuv420p(progressive), 1920x1080, 622410 kb/s, 50 fps, 50 tbr, 50 tbn (default)\n    Metadata:\n      handler_name    : VideoHandler\n      vendor_id       : [0][0][0][0]\n[out#0/mp4 @ 0000017a7dfff740] Codec AVOption b:a (set bitrate (in bits/s)) has not been used for any stream. The most likely reason is either wrong type (e.g. a video option with no video streams) or that it is a private option of some decoder which was not actually used for any stream.\nStream mapping:\n  Stream #0:0 -> #0:0 (h264 (native) -> h264 (libx264))\nPress [q] to stop, [?] for help\n[libx264 @ 0000017a7ec20340] using cpu capabilities: MMX2 SSE2Fast SSSE3 SSE4.2 AVX FMA3 BMI2 AVX2\n[libx264 @ 0000017a7ec20340] profile High, level 5.0, 4:2:0, 8-bit\n[libx264 @ 0000017a7ec20340] 264 - core 165 r3222 b35605a - H.264/MPEG-4 AVC codec - Copyleft 2003-2025 - http://www.videolan.org/x264.html - options: cabac=1 ref=5 deblock=1:0:0 analyse=0x3:0x113 me=hex subme=8 psy=1 psy_rd=1.00:0.00 mixed_ref=1 me_range=16 chroma_me=1 trellis=2 8x8dct=1 cqm=0 deadzone=21,11 fast_pskip=1 chroma_qp_offset=-2 threads=18 lookahead_threads=3 sliced_threads=0 nr=0 decimate=1 interlaced=0 bluray_compat=0 constrained_intra=0 bframes=3 b_pyramid=2 b_adapt=1 b_bias=0 direct=3 weightb=1 open_gop=0 weightp=2 keyint=250 keyint_min=25 scenecut=40 intra_refresh=0 rc_lookahead=50 rc=cbr mbtree=1 bitrate=4000 ratetol=1.0 qcomp=0.60 qpmin=0 qpmax=69 qpstep=4 vbv_maxrate=4000 vbv_bufsize=4000 nal_hrd=none filler=0 ip_ratio=1.40 aq=1:1.00\nOutput #0, mp4, to 'C:\\Users\\Peter\\Desktop\\stuff\\MIUN\\quantitative_research\\video_compression\\compressed_videos\\BVI-HD\\h264\\4\\TreeTrunk_1920x1080_50fps_h264.mp4':\n  Metadata:\n    major_brand     : isom\n    minor_version   : 512\n    compatible_brands: isomiso2avc1mp41\n    encoder         : Lavf62.3.100\n  Stream #0:0(und): Video: h264 (avc1 / 0x31637661), yuv420p(tv, progressive), 1920x1080, q=2-31, 4000 kb/s, 50 fps, 12800 tbn (default)\n    Metadata:\n      encoder         : Lavc62.11.100 libx264\n      handler_name    : VideoHandler\n      vendor_id       : [0][0][0][0]\n    Side data:\n      cpb: bitrate max/min/avg: 4000000/0/4000000 buffer size: 4000000 vbv_delay: N/A\nframe=    0 fps=0.0 q=0.0 size=       0KiB time=N/A bitrate=N/A speed=N/A elapsed=0:00:01.12    \nframe=    0 fps=0.0 q=0.0 size=       0KiB time=N/A bitrate=N/A speed=N/A elapsed=0:00:01.72    \nframe=    0 fps=0.0 q=0.0 size=       0KiB time=N/A bitrate=N/A speed=N/A elapsed=0:00:02.30    \nframe=    0 fps=0.0 q=0.0 size=       0KiB time=N/A bitrate=N/A speed=N/A elapsed=0:00:02.85    \nframe=   29 fps=8.5 q=36.0 size=       0KiB time=00:00:00.46 bitrate=   0.8kbits/s speed=0.135x elapsed=0:00:03.40    \nframe=   45 fps= 11 q=37.0 size=     256KiB time=00:00:00.86 bitrate=2439.0kbits/s speed=0.212x elapsed=0:00:04.06    \nframe=   57 fps= 12 q=40.0 size=     256KiB time=00:00:01.10 bitrate=1906.9kbits/s speed=0.236x elapsed=0:00:04.66    \nframe=   77 fps= 15 q=45.0 size=     512KiB time=00:00:01.50 bitrate=2796.5kbits/s speed=0.287x elapsed=0:00:05.23    \nframe=   92 fps= 16 q=42.0 size=     512KiB time=00:00:01.80 bitrate=2330.4kbits/s speed=0.311x elapsed=0:00:05.78    \nframe=  113 fps= 18 q=40.0 size=     768KiB time=00:00:02.16 bitrate=2912.9kbits/s speed=0.339x elapsed=0:00:06.37    \nframe=  117 fps= 17 q=41.0 size=     768KiB time=00:00:02.30 bitrate=2735.6kbits/s speed=0.33x elapsed=0:00:06.96    \nframe=  137 fps= 18 q=41.0 size=     768KiB time=00:00:02.70 bitrate=2330.3kbits/s speed=0.359x elapsed=0:00:07.52    \nframe=  149 fps= 18 q=46.0 size=    1024KiB time=00:00:02.86 bitrate=2933.2kbits/s speed=0.352x elapsed=0:00:08.11    \nframe=  161 fps= 19 q=46.0 size=    1024KiB time=00:00:03.18 bitrate=2638.0kbits/s speed=0.366x elapsed=0:00:08.69    \nframe=  181 fps= 20 q=49.0 size=    1280KiB time=00:00:03.58 bitrate=2929.1kbits/s speed=0.388x elapsed=0:00:09.23    \nframe=  193 fps= 20 q=47.0 size=    1536KiB time=00:00:03.74 bitrate=3364.5kbits/s speed=0.382x elapsed=0:00:09.77    \nframe=  209 fps= 20 q=46.0 size=    1536KiB time=00:00:04.14 bitrate=3039.4kbits/s speed= 0.4x elapsed=0:00:10.35    \nframe=  225 fps= 21 q=46.0 size=    1792KiB time=00:00:04.46 bitrate=3291.6kbits/s speed=0.41x elapsed=0:00:10.88    \nframe=  239 fps= 21 q=-1.0 size=    2048KiB time=00:00:04.74 bitrate=3539.6kbits/s speed=0.415x elapsed=0:00:11.42    \n[mp4 @ 0000017a7dfff840] Starting second pass: moving the moov atom to the beginning of the file\n[out#0/mp4 @ 0000017a7dfff740] video:2207KiB audio:0KiB subtitle:0KiB other streams:0KiB global headers:0KiB muxing overhead: 0.171779%\nframe=  250 fps= 21 q=-1.0 Lsize=    2211KiB time=00:00:04.96 bitrate=3652.2kbits/s speed=0.422x elapsed=0:00:11.75    \n[libx264 @ 0000017a7ec20340] frame I:1     Avg QP:35.03  size:147581\n[libx264 @ 0000017a7ec20340] frame P:63    Avg QP:40.99  size: 29761\n[libx264 @ 0000017a7ec20340] frame B:186   Avg QP:43.25  size:  1275\n[libx264 @ 0000017a7ec20340] consecutive B-frames:  0.4%  0.8%  1.2% 97.6%\n[libx264 @ 0000017a7ec20340] mb I  I16..4:  5.4% 86.9%  7.6%\n[libx264 @ 0000017a7ec20340] mb P  I16..4:  0.2%  7.9%  0.2%  P16..4: 41.6%  9.0%  6.9%  0.0%  0.0%    skip:34.2%\n[libx264 @ 0000017a7ec20340] mb B  I16..4:  0.0%  0.0%  0.0%  B16..8: 23.4%  0.2%  0.0%  direct: 0.0%  skip:76.3%  L0:48.5% L1:51.4% BI: 0.1%\n[libx264 @ 0000017a7ec20340] 8x8 transform intra:94.0% inter:89.7%\n[libx264 @ 0000017a7ec20340] direct mvs  spatial:94.6% temporal:5.4%\n[libx264 @ 0000017a7ec20340] coded y,uvDC,uvAC intra: 82.9% 26.4% 2.9% inter: 6.6% 2.2% 0.0%\n[libx264 @ 0000017a7ec20340] i16 v,h,dc,p: 19% 33%  7% 41%\n[libx264 @ 0000017a7ec20340] i8 v,h,dc,ddl,ddr,vr,hd,vl,hu:  6%  3%  2% 12% 23% 16% 20%  9% 10%\n[libx264 @ 0000017a7ec20340] i4 v,h,dc,ddl,ddr,vr,hd,vl,hu:  8%  2%  1% 11% 20% 16% 18% 11% 14%\n[libx264 @ 0000017a7ec20340] i8c dc,h,v,p: 78% 13%  5%  5%\n[libx264 @ 0000017a7ec20340] Weighted P-Frames: Y:0.0% UV:0.0%\n[libx264 @ 0000017a7ec20340] ref P L0: 61.3%  8.5% 14.8%  7.3%  8.1%\n[libx264 @ 0000017a7ec20340] ref B L0: 90.6%  9.2%  0.1%  0.0%\n[libx264 @ 0000017a7ec20340] ref B L1: 99.5%  0.5%\n[libx264 @ 0000017a7ec20340] kb/s:3615.52\n",
  "seconds": 12.21217131614685,
  "probe_out": {}
}